<mxfile host="Electron" agent="Mozilla/5.0 (Windows NT 10.0; Win64; x64) AppleWebKit/537.36 (KHTML, like Gecko) draw.io/26.1.1 Chrome/132.0.6834.210 Electron/34.3.3 Safari/537.36" version="26.1.1">
  <diagram name="第 1 页" id="2XPxEPD8QWiGUB0XQ1s3">
    <mxGraphModel dx="1687" dy="984" grid="1" gridSize="10" guides="1" tooltips="1" connect="1" arrows="1" fold="1" page="1" pageScale="1" pageWidth="827" pageHeight="1169" math="1" shadow="0">
      <root>
        <mxCell id="0" />
        <mxCell id="1" parent="0" />
        <mxCell id="Qad_1tFndwwfe0RVBsbW-1" value="&lt;font style=&quot;font-size: 15px;&quot;&gt;$$T$$&lt;/font&gt;" style="rounded=0;whiteSpace=wrap;html=1;strokeWidth=2;labelBorderColor=none;strokeColor=#2E2E2E;fillStyle=solid;fillColor=#E6E6E6;align=left;spacingLeft=-20;spacingBottom=44;" parent="1" vertex="1">
          <mxGeometry x="410" y="432.5" width="256" height="25" as="geometry" />
        </mxCell>
        <mxCell id="Qad_1tFndwwfe0RVBsbW-2" value="" style="rounded=0;whiteSpace=wrap;html=1;shadow=0;textShadow=0;labelBorderColor=none;fillStyle=hatch;noLabel=0;glass=0;fillColor=#000000;autosize=0;strokeWidth=1;strokeOpacity=0;perimeterSpacing=0;sketch=1;curveFitting=1;jiggle=0;hachureGap=3;fontSize=8;hachureAngle=-41;" parent="1" vertex="1">
          <mxGeometry x="666" y="410" width="24" height="70" as="geometry" />
        </mxCell>
        <mxCell id="Qad_1tFndwwfe0RVBsbW-4" value="&lt;span style=&quot;line-height: 10%;&quot;&gt;&lt;font style=&quot;line-height: 10%; font-size: 15px;&quot;&gt;$$4$$&lt;/font&gt;&lt;/span&gt;" style="endArrow=open;startArrow=open;html=1;rounded=0;fontSize=11;fontFamily=latex;spacingBottom=20;spacingLeft=0;labelBackgroundColor=none;startFill=0;endFill=0;" parent="1" edge="1">
          <mxGeometry x="-0.05" y="-19" width="50" height="50" relative="1" as="geometry">
            <mxPoint x="410" y="490" as="sourcePoint" />
            <mxPoint x="665" y="490" as="targetPoint" />
            <mxPoint as="offset" />
          </mxGeometry>
        </mxCell>
        <mxCell id="Qad_1tFndwwfe0RVBsbW-5" value="" style="endArrow=none;html=1;rounded=0;strokeWidth=3;exitX=0;exitY=1;exitDx=0;exitDy=0;" parent="1" edge="1" source="Qad_1tFndwwfe0RVBsbW-2">
          <mxGeometry width="50" height="50" relative="1" as="geometry">
            <mxPoint x="665" y="505" as="sourcePoint" />
            <mxPoint x="665" y="410" as="targetPoint" />
          </mxGeometry>
        </mxCell>
        <mxCell id="Qad_1tFndwwfe0RVBsbW-7" value="" style="endArrow=none;html=1;rounded=0;strokeWidth=1;" parent="1" edge="1">
          <mxGeometry width="50" height="50" relative="1" as="geometry">
            <mxPoint x="409" y="500" as="sourcePoint" />
            <mxPoint x="409" y="480" as="targetPoint" />
          </mxGeometry>
        </mxCell>
        <mxCell id="Qad_1tFndwwfe0RVBsbW-8" value="&lt;font style=&quot;font-size: 15px;&quot;&gt;$$\rho$$&lt;/font&gt;" style="text;strokeColor=none;align=center;fillColor=none;html=1;verticalAlign=middle;whiteSpace=wrap;rounded=0;" parent="1" vertex="1">
          <mxGeometry x="590" y="430" width="60" height="30" as="geometry" />
        </mxCell>
        <mxCell id="Qad_1tFndwwfe0RVBsbW-9" value="&lt;font style=&quot;font-size: 15px;&quot;&gt;$$E$$&lt;/font&gt;" style="text;strokeColor=none;align=center;fillColor=none;html=1;verticalAlign=middle;whiteSpace=wrap;rounded=0;" parent="1" vertex="1">
          <mxGeometry x="590" y="400" width="60" height="30" as="geometry" />
        </mxCell>
        <mxCell id="ifO19uMCZ7ecpQ4BiAp2-4" value="" style="endArrow=open;html=1;rounded=0;strokeWidth=2;endFill=0;" parent="1" edge="1">
          <mxGeometry width="50" height="50" relative="1" as="geometry">
            <mxPoint x="330" y="445.5" as="sourcePoint" />
            <mxPoint x="400" y="445" as="targetPoint" />
          </mxGeometry>
        </mxCell>
        <mxCell id="ifO19uMCZ7ecpQ4BiAp2-12" value="" style="endArrow=none;html=1;rounded=0;strokeWidth=2;curved=1;" parent="1" edge="1">
          <mxGeometry width="50" height="50" relative="1" as="geometry">
            <mxPoint x="340" y="444.5" as="sourcePoint" />
            <mxPoint x="360" y="444.5" as="targetPoint" />
            <Array as="points">
              <mxPoint x="350" y="410.5" />
            </Array>
          </mxGeometry>
        </mxCell>
        <mxCell id="ifO19uMCZ7ecpQ4BiAp2-13" value="" style="endArrow=none;html=1;rounded=0;strokeWidth=2;curved=1;" parent="1" edge="1">
          <mxGeometry width="50" height="50" relative="1" as="geometry">
            <mxPoint x="361" y="445.5" as="sourcePoint" />
            <mxPoint x="381" y="445.5" as="targetPoint" />
            <Array as="points">
              <mxPoint x="371" y="479.5" />
            </Array>
          </mxGeometry>
        </mxCell>
        <mxCell id="2r0QC9sDHty9wz3O-EIP-1" value="" style="endArrow=none;html=1;rounded=0;strokeWidth=1;" edge="1" parent="1">
          <mxGeometry width="50" height="50" relative="1" as="geometry">
            <mxPoint x="665" y="500" as="sourcePoint" />
            <mxPoint x="665" y="480" as="targetPoint" />
          </mxGeometry>
        </mxCell>
      </root>
    </mxGraphModel>
  </diagram>
</mxfile>
